FFmpeg version SVN-r25716, Copyright (c) 2000-2010 the FFmpeg developers  built on Nov 10 2010 12:23:18 with gcc 4.1.2 20080704 (Red Hat 4.1.2-48)  configuration: --enable-libmp3lame --enable-shared --disable-mmx --arch=x86_64  libavutil     50.33. 0 / 50.33. 0  libavcore      0.12. 1 /  0.12. 1  libavcodec    52.94. 4 / 52.94. 4  libavformat   52.84. 0 / 52.84. 0  libavdevice   52. 2. 2 / 52. 2. 2  libavfilter    1.59. 0 /  1.59. 0  libswscale     0.12. 0 /  0.12. 0Seems stream 0 codec frame rate differs from container frame rate: 1000.00 (1000/1) -> 12.05 (1000/83)Input #0, mov,mp4,m4a,3gp,3g2,mj2, from '/RAID10/data/converted_video_files/25630.mov':  Metadata:    major_brand     : qt      minor_version   : 537199360    compatible_brands: qt    Duration: 00:00:20.25, start: 0.000000, bitrate: 2835 kb/s    Stream #0.0(eng): Video: mpeg4, yuv420p, 1012x622 [PAR 1:1 DAR 506:311], 2834 kb/s, 12.05 fps, 12.05 tbr, 1k tbn, 1k tbc[buffer @ 0x19c7f330] w:1012 h:622 pixfmt:yuv420pOutput #0, flv, to '/RAID10/data/converted_video_files/25630.flv':  Metadata:    encoder         : Lavf52.84.0    Stream #0.0(eng): Video: flv, yuv420p, 1012x622 [PAR 1:1 DAR 506:311], q=2-31, 600 kb/s, 1k tbn, 24 tbcStream mapping:  Stream #0.0 -> #0.0Press [q] to stop encodingframe=   11 fps=  0 q=21.3 size=     426kB time=0.87 bitrate=3993.8kbits/s    frame=   27 fps= 24 q=31.0 size=     599kB time=2.21 bitrate=2222.3kbits/s    frame=   41 fps= 25 q=31.0 size=     746kB time=3.37 bitrate=1810.8kbits/s    frame=   56 fps= 26 q=31.0 size=     914kB time=4.58 bitrate=1634.5kbits/s    frame=   74 fps= 28 q=31.0 size=    1100kB time=6.08 bitrate=1481.7kbits/s    frame=   92 fps= 29 q=24.8 size=    1319kB time=7.58 bitrate=1425.4kbits/s    frame=  111 fps= 30 q=31.0 size=    1527kB time=9.17 bitrate=1364.7kbits/s    frame=  130 fps= 31 q=31.0 size=    1731kB time=10.75 bitrate=1319.3kbits/s    frame=  149 fps= 32 q=31.0 size=    1919kB time=12.33 bitrate=1274.5kbits/s    frame=  167 fps= 32 q=31.0 size=    2116kB time=13.83 bitrate=1253.2kbits/s    frame=  187 fps= 33 q=24.8 size=    2305kB time=15.46 bitrate=1221.3kbits/s    frame=  206 fps= 33 q=31.0 size=    2486kB time=17.04 bitrate=1195.0kbits/s    frame=  225 fps= 33 q=31.0 size=    2689kB time=18.62 bitrate=1182.8kbits/s    frame=  244 fps= 34 q=31.0 Lsize=    2860kB time=20.21 bitrate=1159.4kbits/s    video:2856kB audio:0kB global headers:0kB muxing overhead 0.140665%